<?xml version="1.0" standalone="no"?>
<!DOCTYPE svg PUBLIC "-//W3C//DTD SVG 1.1//EN" "http://www.w3.org/Graphics/SVG/1.1/DTD/svg11.dtd" >
<svg xmlns="http://www.w3.org/2000/svg">
<metadata>Generated by IcoMoon</metadata>
<defs>
<font id="icomoon" horiz-adv-x="1024">
<font-face units-per-em="1024" ascent="960" descent="-64" />
<missing-glyph horiz-adv-x="1024" />
<glyph unicode="&#x20;" horiz-adv-x="512" d="" />
<glyph unicode="&#xe900;" glyph-name="back" d="M608 64c-6.4 0-19.2 0-25.6 6.4l-320 320c-6.4 12.8-6.4 38.4 0 51.2l320 320c12.8 6.4 38.4 6.4 51.2 0s12.8-32 0-44.8l-300.8-300.8 294.4-294.4c12.8-12.8 12.8-32 0-44.8 0-12.8-12.8-12.8-19.2-12.8z" />
<glyph unicode="&#xe901;" glyph-name="add" d="M554.667 490.667h469.333v-85.333h-469.333v-469.333h-85.333v469.333h-469.333v85.333h469.333v469.333h85.333v-469.333z" />
<glyph unicode="&#xe902;" glyph-name="signin-setting" d="M602.112 435.712c-12.288 0-20.48 8.192-20.48 20.48s8.192 20.48 20.48 20.48c0 0 4.096 0 4.096 0 32.768 4.096 57.344 28.672 57.344 65.536v49.152c0 36.864-28.672 65.536-65.536 65.536h-16.384c-12.288 0-20.48-4.096-28.672-8.192s-20.48 0-28.672 8.192c-4.096 8.192 0 20.48 8.192 28.672 16.384 8.192 32.768 12.288 49.152 12.288h16.384c57.344 0 106.496-49.152 106.496-106.496v-49.152c0-53.248-40.96-98.304-94.208-106.496-4.096 4.096-4.096 0-8.192 0zM757.76 239.104h-61.44c-12.288 0-20.48 8.192-20.48 20.48s8.192 20.48 20.48 20.48h61.44c4.096 0 12.288 4.096 12.288 8.192 12.288 24.576 4.096 36.864 4.096 40.96-8.192 12.288-36.864 36.864-131.072 40.96-20.48 0-36.864 0-45.056 0-12.288 0-20.48 8.192-20.48 20.48s8.192 20.48 20.48 20.48c12.288 0 28.672 0 49.152 0 90.112-4.096 143.36-24.576 163.84-61.44 12.288-20.48 12.288-49.152 0-77.824-12.288-20.48-32.768-32.768-53.248-32.768zM430.080 390.656h-20.48c-61.44 0-114.688 53.248-114.688 114.688v53.248c0 61.44 53.248 114.688 114.688 114.688h20.48c61.44 0 114.688-53.248 114.688-114.688v-53.248c4.096-61.44-49.152-114.688-114.688-114.688zM413.696 632.32c-40.96 0-73.728-32.768-73.728-73.728v-53.248c0-40.96 32.768-73.728 73.728-73.728h20.48c40.96 0 73.728 32.768 73.728 73.728v53.248c0 40.96-32.768 73.728-73.728 73.728h-20.48zM581.632 194.048h-319.488c-20.48 0-40.96 12.288-49.152 32.768-16.384 36.864-8.192 65.536 0 81.92 32.768 53.248 139.264 61.44 212.992 61.44 110.592 0 180.224-20.48 208.896-61.44 8.192-16.384 16.384-40.96 0-81.92-12.288-20.48-32.768-32.768-53.248-32.768zM425.984 325.12c-126.976 0-167.936-20.48-180.224-40.96-4.096-4.096-8.192-16.384 0-40.96 0-4.096 8.192-8.192 12.288-8.192h319.488c4.096 0 12.288 4.096 12.288 8.192 12.288 24.576 4.096 36.864 4.096 40.96-4.096 12.288-36.864 40.96-167.936 40.96z" />
<glyph unicode="&#xe903;" glyph-name="edit" d="M883.2 684.8l-115.2 128c-12.8 12.8-32 25.6-51.2 25.6s-32-6.4-44.8-19.2l-550.4-480v-236.8h211.2l544 480c12.8 12.8 25.6 32 25.6 51.2 0 12.8-6.4 38.4-19.2 51.2zM313.6 160h-140.8v153.6l422.4 371.2 134.4-153.6-416-371.2zM838.4 620.8l-64-57.6-134.4 160 64 57.6c6.4 6.4 12.8 6.4 19.2 0l115.2-128c0 0 6.4-6.4 6.4-12.8s-6.4-12.8-6.4-19.2z" />
<glyph unicode="&#xe904;" glyph-name="conference-manage" d="M789.333 170.667h-247.467c-17.067 0-38.4 12.8-42.667 29.867-12.8 34.133-8.533 55.467 0 68.267 29.867 42.667 110.933 46.933 170.667 46.933 89.6 0 145.067-17.067 166.4-51.2 8.533-12.8 17.067-34.133 0-68.267-8.533-12.8-25.6-25.6-46.933-25.6zM669.867 273.067c-98.133 0-128-17.067-132.267-29.867 0-4.267-4.267-8.533 0-25.6 0 0 4.267-4.267 4.267-4.267h247.467c4.267 0 4.267 0 4.267 4.267 8.533 17.067 4.267 25.6 4.267 25.6-4.267 8.533-25.6 29.867-128 29.867zM439.467 192h-140.8c-25.6 0-42.667 17.067-42.667 42.667v469.333c0 25.6 17.067 42.667 42.667 42.667h413.867c25.6 0 42.667-17.067 42.667-42.667v-106.667h-42.667v106.667h-413.867v-469.333h140.8v-42.667zM674.133 324.267h-12.8c-51.2 0-93.867 42.667-93.867 93.867v42.667c0 51.2 42.667 93.867 93.867 93.867h12.8c51.2 0 93.867-42.667 93.867-93.867v-42.667c0-51.2-38.4-93.867-93.867-93.867zM661.333 512c-29.867 0-51.2-21.333-51.2-51.2v-42.667c0-29.867 21.333-51.2 51.2-51.2h12.8c29.867 0 51.2 21.333 51.2 51.2v42.667c0 29.867-21.333 51.2-51.2 51.2h-12.8zM494.933 418.133h-128v42.667h128v-42.667zM571.733 554.667h-204.8v42.667h204.8v-42.667z" />
<glyph unicode="&#xe905;" glyph-name="app-manage" d="M802.133 610.133l-128 128c-4.267 8.533-12.8 8.533-21.333 8.533s-17.067-4.267-21.333-8.533l-128-128c-4.267-4.267-8.533-12.8-8.533-21.333s4.267-17.067 8.533-21.333l128-128c4.267-4.267 12.8-8.533 21.333-8.533s17.067 4.267 21.333 8.533l128 128c8.533 4.267 8.533 12.8 8.533 21.333s0 17.067-8.533 21.333zM652.8 465.067l-123.733 123.733 123.733 123.733 123.733-123.733-123.733-123.733zM430.933 401.067h-183.467c-21.333 0-34.133-17.067-34.133-34.133v-183.467c0-21.333 12.8-34.133 34.133-34.133h183.467c21.333 0 34.133 17.067 34.133 34.133v183.467c0 17.067-17.067 34.133-34.133 34.133zM426.667 183.467h-179.2v179.2h179.2v-179.2zM729.6 401.067h-183.467c-21.333 0-34.133-17.067-34.133-34.133v-183.467c0-21.333 17.067-34.133 34.133-34.133h183.467c21.333 0 34.133 17.067 34.133 34.133v183.467c0 17.067-17.067 34.133-34.133 34.133zM725.333 183.467h-179.2v179.2h179.2v-179.2zM430.933 699.733h-183.467c-21.333 0-34.133-17.067-34.133-34.133v-183.467c0-21.333 17.067-34.133 34.133-34.133h183.467c21.333 0 34.133 17.067 34.133 34.133v183.467c0 17.067-17.067 34.133-34.133 34.133zM426.667 482.133h-179.2v179.2h179.2v-179.2z" />
<glyph unicode="&#xe906;" glyph-name="guide" d="M733.867 520.533l76.8 89.6-76.8 89.6h-221.867v21.333c0 12.8-8.533 21.333-21.333 21.333s-21.333-8.533-21.333-21.333v-21.333h-132.267c-21.333 0-38.4-17.067-38.4-38.4v-106.667c0-21.333 17.067-38.4 38.4-38.4h132.267v-38.4h-170.667l-76.8-89.6 76.8-89.6h170.667v-174.933c0-12.8 8.533-21.333 21.333-21.333s21.333 8.533 21.333 21.333v174.933h183.467c21.333 0 38.4 17.067 38.4 38.4v106.667c0 21.333-17.067 38.4-38.4 38.4h-183.467v38.4h221.867zM682.667 345.6h-371.2l-42.667 46.933 42.667 46.933h371.2v-93.867zM341.333 661.333h371.2l42.667-46.933-42.667-46.933h-371.2v93.867z" />
<glyph unicode="&#xe907;" glyph-name="activity" d="M529.067 345.6c-64 0-119.467 55.467-119.467 119.467s55.467 119.467 119.467 119.467c64 0 119.467-55.467 119.467-119.467s-51.2-119.467-119.467-119.467zM529.067 541.867c-42.667 0-76.8-34.133-76.8-76.8s34.133-76.8 76.8-76.8c42.667 0 76.8 34.133 76.8 76.8s-34.133 76.8-76.8 76.8zM669.867 187.733h-290.133c-8.533 0-17.067 4.267-21.333 17.067s0 17.067 8.533 25.6l119.467 72.533 21.333-34.133-55.467-34.133h213.333l136.533 238.933-136.533 238.933h-277.333l-136.533-238.933 89.6-149.333-38.4-21.333-89.6 153.6c-8.533 12.8-8.533 29.867 0 42.667l136.533 238.933c8.533 12.8 21.333 21.333 34.133 21.333h277.333c12.8 0 29.867-8.533 34.133-21.333l136.533-238.933c8.533-12.8 8.533-29.867 0-42.667l-136.533-238.933c0-25.6-12.8-29.867-25.6-29.867z" />
<glyph unicode="&#xe908;" glyph-name="pack-up" d="M275.2 320l-51.2 44.8 326.4 320 320-320-51.2-44.8-268.8 275.2z" />
<glyph unicode="&#xe909;" glyph-name="conference-logo" d="M908.8 746.667h-793.6c-17.067 0-29.867-12.8-29.867-29.867s12.8-29.867 29.867-29.867h46.933v-430.933c0-34.133 38.4-59.733 72.533-59.733h89.6l-55.467-72.533c-8.533-12.8-8.533-34.133 4.267-42.667 4.267-4.267 12.8-8.533 17.067-8.533 8.533 0 17.067 4.267 21.333 12.8l85.333 106.667h153.6c0 12.8-4.267 21.333-4.267 34.133 0 110.933 89.6 196.267 196.267 196.267 34.133 0 68.267-8.533 98.133-25.6v290.133h64c17.067 0 29.867 12.8 29.867 29.867s-8.533 29.867-25.6 29.867zM520.533 396.8h-192c-12.8 0-21.333 8.533-21.333 21.333s8.533 21.333 21.333 21.333h196.267c12.8 0 21.333-8.533 21.333-21.333-4.267-12.8-12.8-21.333-25.6-21.333zM657.067 533.333h-328.533c-12.8 0-21.333 8.533-21.333 21.333s8.533 21.333 21.333 21.333h332.8c12.8 0 21.333-8.533 21.333-21.333s-12.8-21.333-25.6-21.333zM887.467 273.067v0c-25.6 4.267-38.4 25.6-29.867 46.933v4.267c4.267 8.533 0 21.333-8.533 25.6l-38.4 21.333c-8.533 4.267-21.333 4.267-29.867-8.533v0c-12.8-21.333-46.933-21.333-59.733 0v0c-8.533 8.533-17.067 12.8-29.867 8.533l-34.133-21.333c-8.533-4.267-12.8-17.067-8.533-29.867v0c12.8-21.333-4.267-51.2-29.867-51.2v0c-12.8 0-21.333-8.533-21.333-21.333v-42.667c0-12.8 8.533-21.333 21.333-21.333v0c25.6 0 42.667-29.867 29.867-51.2-4.267-8.533 0-21.333 8.533-29.867l34.133-21.333c8.533-4.267 21.333-4.267 29.867 8.533v0c12.8 21.333 46.933 21.333 59.733 0v0c8.533-8.533 17.067-12.8 29.867-8.533l34.133 21.333c8.533 4.267 12.8 17.067 8.533 29.867v0c-12.8 21.333 4.267 51.2 29.867 51.2v0c12.8 0 21.333 8.533 21.333 21.333v42.667c0 12.8-8.533 21.333-17.067 25.6zM750.933 166.4c-34.133 0-59.733 25.6-59.733 59.733s25.6 59.733 59.733 59.733c34.133 0 59.733-25.6 59.733-59.733 0-29.867-25.6-59.733-59.733-59.733z" />
<glyph unicode="&#xe90a;" glyph-name="edit01" d="M409.6 1.829h-234.057c-14.629 0-29.257 14.629-29.257 29.257s14.629 29.257 29.257 29.257h738.743c14.629 0 29.257-14.629 29.257-29.257s-14.629-29.257-29.257-29.257h-504.686zM204.8 411.429l153.6-153.6 365.714 365.714-153.6 153.6-365.714-365.714zM175.543 352.914l-43.886-168.229 168.229 43.886-124.343 124.343zM131.657 426.057c0 0 0 7.314 0 0 7.314 7.314 7.314 7.314 14.629 14.629l512 512c14.629 14.629 36.571 14.629 43.886 0l197.486-197.486c14.629-14.629 14.629-36.571 0-43.886l-526.629-526.629c-7.314-7.314-7.314-7.314-14.629-7.314l-263.314-65.829c0 0-7.314 0-7.314 0-7.314 0-21.943 7.314-29.257 14.629s-7.314 21.943-7.314 29.257l65.829 263.314c7.314 0 7.314 0 14.629 7.314v0zM614.4 821.029l153.6-153.6 58.514 58.514-153.6 153.6-58.514-58.514z" />
<glyph unicode="&#xe90b;" glyph-name="remove" d="M380.343 228.571v292.571c0 14.629 14.629 29.257 29.257 29.257h29.257c14.629 0 29.257-14.629 29.257-29.257v-292.571c0-14.629-14.629-29.257-29.257-29.257h-29.257c-14.629 0-29.257 14.629-29.257 29.257zM555.886 228.571v292.571c0 14.629 14.629 29.257 29.257 29.257h29.257c14.629 0 29.257-14.629 29.257-29.257v-292.571c0-14.629-14.629-29.257-29.257-29.257h-29.257c-14.629 0-29.257 14.629-29.257 29.257zM277.943 711.314v-643.657c0-7.314 7.314-14.629 14.629-14.629h438.857c7.314 0 14.629 7.314 14.629 14.629v643.657h-468.114zM724.114 791.771h226.743c7.314 0 14.629-7.314 14.629-14.629v-51.2c0-7.314-7.314-14.629-14.629-14.629h-131.657v-636.343c0-51.2-36.571-87.771-87.771-87.771h-438.857c-51.2 0-87.771 36.571-87.771 87.771v636.343h-131.657c-7.314 0-14.629 7.314-14.629 14.629v51.2c0 7.314 7.314 14.629 14.629 14.629h226.743v80.457c0 29.257 21.943 51.2 51.2 51.2h314.514c29.257 0 51.2-21.943 51.2-51.2v-80.457zM650.971 850.286h-270.629v-65.829h270.629v65.829z" />
<glyph unicode="&#xe90c;" glyph-name="delete" d="M960 806.4l-89.6 89.6-358.4-358.4-358.4 358.4-89.6-89.6 358.4-358.4-358.4-358.4 89.6-89.6 358.4 358.4 358.4-358.4 89.6 89.6-358.4 358.4z" />
<glyph unicode="&#xe90d;" glyph-name="right" d="M392.533 72.533c-17.067 0-34.133 0-51.2 17.067l-307.2 324.267c-34.133 34.133-34.133 85.333 0 119.467s85.333 34.133 119.467 0l256-256 494.933 494.933c34.133 34.133 85.333 34.133 119.467 0s34.133-85.333 0-119.467l-546.133-546.133c-51.2-17.067-68.267-34.133-85.333-34.133z" />
<glyph unicode="&#xe90e;" glyph-name="add-white" d="M542.118 478.118h301.176v-60.235h-301.176v-301.176h-60.235v301.176h-301.176v60.235h301.176v301.176h60.235v-301.176z" />
<glyph unicode="&#xe90f;" d="M512 960c-281.6 0-512-230.4-512-512s230.4-512 512-512 512 230.4 512 512-230.4 512-512 512zM512 38.4c-224 0-409.6 185.6-409.6 409.6s185.6 409.6 409.6 409.6 409.6-185.6 409.6-409.6-185.6-409.6-409.6-409.6zM627.2 588.8l-166.4-172.8-64 64c-19.2 25.6-57.6 25.6-76.8 6.4s-19.2-57.6 0-76.8l102.4-102.4c12.8-12.8 25.6-12.8 38.4-12.8s25.6 6.4 38.4 12.8l204.8 204.8c19.2 19.2 19.2 51.2 0 70.4-19.2 25.6-57.6 25.6-76.8 6.4z" />
<glyph unicode="&#xe910;" glyph-name="arrow-down" d="M793.6 556.8l-256-320c-6.4-6.4-12.8-12.8-25.6-12.8s-19.2 6.4-25.6 12.8l-256 313.6c-12.8 19.2-6.4 38.4 6.4 51.2s32 6.4 44.8-6.4l230.4-288 230.4 288c12.8 12.8 32 19.2 44.8 6.4 6.4-6.4 12.8-12.8 12.8-25.6 0-6.4-6.4-12.8-6.4-19.2z" />
<glyph unicode="&#xe911;" glyph-name="arrow-right" d="M396.8 608l185.6-185.6-185.6-185.6c-19.2-19.2-19.2-44.8 0-64s44.8-19.2 64 0l211.2 211.2c6.4 6.4 12.8 19.2 12.8 32s-6.4 19.2-12.8 32l-211.2 217.6c-19.2 19.2-44.8 19.2-64 0-12.8-12.8-12.8-44.8 0-57.6z" />
<glyph unicode="&#xe912;" glyph-name="arrow-left" d="M614.4 608l-179.2-185.6 185.6-185.6c19.2-19.2 19.2-44.8 0-64s-44.8-19.2-64 0l-211.2 217.6c-12.8 12.8-12.8 25.6-12.8 32 0 12.8 6.4 19.2 12.8 32l211.2 211.2c19.2 19.2 44.8 19.2 64 0 12.8-12.8 12.8-44.8-6.4-57.6z" />
<glyph unicode="&#xe913;" d="M512 960c-281.6 0-512-230.4-512-512s230.4-512 512-512 512 230.4 512 512-230.4 512-512 512zM512 38.4c-224 0-409.6 185.6-409.6 409.6s185.6 409.6 409.6 409.6 409.6-185.6 409.6-409.6-185.6-409.6-409.6-409.6zM627.2 588.8l-166.4-172.8-64 64c-19.2 25.6-57.6 25.6-76.8 6.4s-19.2-57.6 0-76.8l102.4-102.4c12.8-12.8 25.6-12.8 38.4-12.8s25.6 6.4 38.4 12.8l204.8 204.8c19.2 19.2 19.2 51.2 0 70.4-19.2 25.6-57.6 25.6-76.8 6.4z" />
<glyph unicode="&#xe914;" glyph-name="position" d="M512 23.771c-152.137 0-307.2 40.96-307.2 128.731 0 70.217 105.326 114.103 204.8 122.88h5.851l-134.583 210.651c-2.926 8.777-8.777 14.629-11.703 23.406l-2.926 5.851v2.926c-11.703 29.257-17.554 61.44-17.554 93.623 0 143.36 119.954 257.463 269.166 257.463 146.286 0 269.166-117.029 269.166-257.463 0-32.183-5.851-64.366-17.554-93.623l-2.926-5.851v-2.926c-2.926-8.777-8.777-17.554-11.703-26.331l-234.057-374.491-55.589 87.771h-2.926c-90.697-8.777-146.286-32.183-160.914-43.886l-2.926-2.926 2.926-2.926c20.48-17.554 93.623-46.811 213.577-46.811h11.703c119.954 0 196.023 29.257 213.577 46.811l2.926 2.926-2.926 2.926c-11.703 8.777-49.737 29.257-111.177 38.034l46.811 73.143c99.474-20.48 152.137-61.44 152.137-114.103-8.777-84.846-163.84-125.806-315.977-125.806v0zM512 752.274c-64.366 0-114.103-49.737-114.103-111.177s52.663-111.177 114.103-111.177c64.366 0 114.103 49.737 114.103 111.177s-49.737 111.177-114.103 111.177z" />
<glyph unicode="&#xe915;" glyph-name="airplane" d="M846.306 520.282h-132.518l-237.929 289.129h-111.435l111.435-289.129h-225.882l-93.365 72.282h-66.259l54.212-216.847h328.282l-108.424-289.129h111.435l237.929 289.129h183.718c15.059 0 36.141 0 36.141 36.141 0 48.188-39.153 108.424-87.341 108.424v0z" />
<glyph unicode="&#xe916;" glyph-name="food" d="M819.2 438.965c-3.012-9.035-9.035-24.094-30.118-39.153-48.188-27.106-126.494-69.271-147.576-81.318-12.047-21.082-54.212-102.4-81.318-150.588-15.059-24.094-30.118-30.118-42.165-30.118 0 0 0 0 0 0-12.047 0-24.094 6.024-36.141 15.059-39.153 36.141-105.412 99.388-123.482 114.447-24.094 3.012-117.459 21.082-168.659 30.118-15.059 3.012-27.106 12.047-33.129 24.094-6.024 9.035-9.035 24.094 0 48.188 24.094 48.188 63.247 132.518 72.282 153.6-3.012 24.094-15.059 114.447-21.082 168.659-3.012 15.059 3.012 30.118 12.047 39.153 12.047 12.047 27.106 18.071 42.165 15.059 54.212-6.024 144.565-15.059 168.659-18.071 21.082 9.035 102.4 48.188 150.588 72.282 9.035 3.012 18.071 6.024 24.094 6.024 24.094 0 45.176-18.071 48.188-42.165 12.047-54.212 27.106-141.553 30.118-162.635 15.059-15.059 78.306-81.318 114.447-120.471 18.071-12.047 24.094-27.106 21.082-42.165zM867.388 92.612c-3.012-3.012-9.035-6.024-12.047-6.024-6.024 0-9.035 3.012-12.047 6.024l-144.565 144.565c-6.024 6.024-6.024 18.071 0 24.094s18.071 6.024 24.094 0l144.565-144.565c9.035-6.024 9.035-18.071 0-24.094z" />
<glyph unicode="&#xe917;" glyph-name="calendar2" d="M896 160v332.8h-768v-332.8c0-38.4 25.6-64 64-64h640c38.4 0 64 25.6 64 64zM320 761.6v102.4h64v-102.4h256v102.4h64v-102.4h128c83.2 0 128-51.2 128-134.4v-460.8c0-83.2-64-134.4-147.2-134.4h-601.6c-83.2 0-147.2 64-147.2 140.8v448c0 76.8 44.8 140.8 128 140.8h128zM320 691.2h-128c-38.4 0-64-25.6-64-64v-64h768v64c0 38.4-25.6 64-64 64h-128v-70.4h-64v70.4h-256v-70.4h-64v70.4zM256 262.4h512v64h-512v-64z" />
<glyph unicode="&#xe918;" glyph-name="arrow-down-01" d="M716.8 544c12.8 12.8 32 12.8 44.8-6.4 12.8-12.8 12.8-32-6.4-44.8l-224-192c-12.8-12.8-32-12.8-44.8 0l-224 192c-6.4 12.8-12.8 32 0 44.8s32 12.8 44.8 6.4l204.8-179.2 204.8 179.2z" />
<glyph unicode="&#xe919;" glyph-name="search" d="M695.878 335.006l255.885-204.702-63.969-79.964-255.885 204.702 63.969 79.964zM409.6 140.8c-199.68 0-358.4 158.72-358.4 358.4s158.72 358.4 358.4 358.4c199.68 0 358.4-158.72 358.4-358.4s-158.72-358.4-358.4-358.4zM409.6 755.2c-143.36 0-256-112.64-256-256s112.64-256 256-256 256 112.64 256 256-112.64 256-256 256z" />
<glyph unicode="&#xe91a;" d="M512 960c-281.6 0-512-230.4-512-512s230.4-512 512-512 512 230.4 512 512-230.4 512-512 512zM512 38.4c-224 0-409.6 185.6-409.6 409.6s185.6 409.6 409.6 409.6 409.6-185.6 409.6-409.6-185.6-409.6-409.6-409.6zM512 704c-25.6 0-51.2-25.6-51.2-51.2v-204.8c0-25.6 25.6-51.2 51.2-51.2s51.2 25.6 51.2 51.2v204.8c0 25.6-25.6 51.2-51.2 51.2zM512 294.4c-25.6 0-51.2-25.6-51.2-51.2s25.6-51.2 51.2-51.2 51.2 25.6 51.2 51.2-25.6 51.2-51.2 51.2z" />
<glyph unicode="&#xe91b;" glyph-name="download" d="M145.067 499.2v-379.733c0-17.067 12.8-29.867 29.867-29.867h669.867c17.067 0 29.867 12.8 29.867 29.867v379.733h59.733v-379.733c0-51.2-42.667-93.867-89.6-93.867h-669.867c-51.2 0-89.6 42.667-89.6 93.867v379.733h59.733zM550.4 302.933l110.933 110.933 46.933-46.933-196.267-200.533-196.267 200.533 46.933 46.933 110.933-110.933v529.067h81.067v-529.067z" />
<glyph unicode="&#xe91c;" d="M512 960c-281.6 0-512-230.4-512-512s230.4-512 512-512 512 230.4 512 512-230.4 512-512 512zM512 38.4c-224 0-409.6 185.6-409.6 409.6s185.6 409.6 409.6 409.6 409.6-185.6 409.6-409.6-185.6-409.6-409.6-409.6zM512 704c-25.6 0-51.2-25.6-51.2-51.2v-204.8c0-25.6 25.6-51.2 51.2-51.2s51.2 25.6 51.2 51.2v204.8c0 25.6-25.6 51.2-51.2 51.2zM512 294.4c-25.6 0-51.2-25.6-51.2-51.2s25.6-51.2 51.2-51.2 51.2 25.6 51.2 51.2-25.6 51.2-51.2 51.2z" />
<glyph unicode="&#xe91d;" glyph-name="selected-small" d="M403.2 198.4l-204.8 217.6c-12.8 12.8-12.8 32 0 44.8l38.4 44.8c12.8 12.8 32 12.8 38.4 0l140.8-153.6 313.6 339.2c12.8 12.8 32 12.8 38.4 0l38.4-44.8c12.8-12.8 12.8-32 0-44.8l-377.6-409.6c6.4 0-12.8 0-25.6 6.4z" />
<glyph unicode="&#xe91e;" glyph-name="selected-big" d="M926.72 780.8l-563.2-578.56-281.6 281.6-81.92-76.8 363.52-363.52 650.24 650.24z" />
<glyph unicode="&#xe91f;" glyph-name="alert-error" d="M102.4 448c0 96 32 179.2 89.6 249.6l576-576c-70.4-51.2-153.6-89.6-249.6-89.6-230.4 6.4-416 192-416 416zM832 198.4l-576 576c76.8 51.2 160 83.2 256 83.2 224 0 409.6-185.6 409.6-409.6 0-96-32-179.2-89.6-249.6zM0 448c0-281.6 230.4-512 512-512s512 230.4 512 512-230.4 512-512 512-512-230.4-512-512z" />
<glyph unicode="&#xe920;" glyph-name="dine" d="M848.457 140.8h-667.063c0 0-11.703 67.291 0 67.291h667.063v-67.291zM848.457 278.309h-667.063c0 0 0 43.886 0 58.514 0 178.469 137.509 257.463 313.051 269.166 0-2.926 0 111.177 0 111.177l-46.811-26.331c-11.703 0-17.554 35.109-17.554 46.811s8.777 20.48 20.48 20.48h125.806c11.703 0 20.48-8.777 20.48-20.48s-5.851-46.811-17.554-46.811l-46.811 26.331v-111.177c175.543-11.703 313.051-90.697 313.051-269.166 2.926-14.629 2.926-58.514 2.926-58.514z" />
<glyph unicode="&#xe921;" glyph-name="accommodation" d="M319.247 655.812h225.882v-39.153h-225.882v39.153zM319.247 544.376h225.882v-39.153h-225.882v39.153zM319.247 429.929h225.882v-39.153h-225.882v39.153zM319.247 315.482h225.882v-39.153h-225.882v39.153zM867.388 125.741v436.706c0 6.024-3.012 9.035-6.024 12.047s-9.035 6.024-12.047 6.024h-111.435c-6.024 0-9.035-3.012-12.047-6.024s-6.024-9.035-6.024-12.047v-436.706h-36.141v647.529c0 21.082-18.071 39.153-36.141 39.153h-415.624c-9.035 0-18.071-3.012-27.106-12.047-6.024-6.024-12.047-18.071-12.047-27.106v-647.529h-36.141v-39.153h752.941v39.153h-42.165z" />
<glyph unicode="&#xe922;" glyph-name="custom" d="M554.165 405.835h289.129v-289.129h-289.129v289.129zM554.165 779.294h289.129v-289.129h-289.129v289.129zM180.706 405.835h289.129v-289.129h-289.129v289.129zM180.706 779.294h289.129v-289.129h-289.129v289.129z" />
<glyph unicode="&#xe923;" glyph-name="signup_manage" d="M528.384 517.632v172.032h-176.128v-172.032h176.128zM528.384 476.672h-176.128c-24.576 0-40.96 16.384-40.96 40.96v172.032c0 24.576 16.384 40.96 40.96 40.96h176.128c24.576 0 40.96-16.384 40.96-40.96v-172.032c0-20.48-20.48-40.96-40.96-40.96zM278.528 165.376h-40.96v225.28c0 32.768 24.576 57.344 57.344 57.344h290.816c32.768 0 57.344-24.576 57.344-57.344v-225.28h-40.96v225.28c0 8.192-8.192 16.384-16.384 16.384h-290.816c-8.192 0-16.384-8.192-16.384-16.384v-225.28zM458.752 308.736v-98.304h-40.96v98.304h-32.768v40.96h106.496v-40.96h-32.768zM610.304 632.32v40.96h110.592c20.48 0 36.864-16.384 36.864-36.864v-118.784h-40.96v114.688h-106.496zM659.456 427.52v40.96h73.728c28.672 0 49.152-20.48 49.152-49.152v-204.8h-40.96v204.8c0 4.096-4.096 8.192-8.192 8.192h-73.728z" />
<glyph unicode="&#xe924;" glyph-name="guest_manage" d="M580.267 554.667v187.733h-196.267v-192h196.267zM580.267 507.733h-196.267c-25.6 0-46.933 21.333-46.933 46.933v187.733c0 25.6 21.333 46.933 46.933 46.933h196.267c25.6 0 46.933-21.333 46.933-46.933v-192c-4.267-21.333-21.333-42.667-46.933-42.667zM302.933 157.867h-46.933v251.733c0 34.133 29.867 64 64 64h320c34.133 0 64-29.867 64-64h-46.933c0 8.533-8.533 17.067-17.067 17.067h-320c-8.533 0-17.067-8.533-17.067-17.067v-251.733zM832 196.267c17.067-8.533 21.333-29.867 12.8-46.933l-12.8-25.6c-4.267-8.533-12.8-12.8-21.333-17.067s-17.067 0-25.6 4.267l-25.6 12.8c-8.533-4.267-17.067-12.8-25.6-12.8v-17.067c0-17.067-12.8-34.133-34.133-34.133h-25.6c-17.067 0-34.133 12.8-34.133 34.133v17.067c-8.533 4.267-17.067 8.533-25.6 12.8l-25.6-12.8c-8.533-4.267-17.067-4.267-25.6-4.267s-17.067 8.533-21.333 17.067l-17.067 25.6c-8.533 17.067-4.267 38.4 12.8 46.933l25.6 12.8c0 4.267 0 8.533 0 12.8s0 8.533 0 12.8l-21.333 12.8c-17.067 8.533-21.333 29.867-12.8 46.933l12.8 25.6c4.267 8.533 12.8 12.8 21.333 17.067s17.067 0 25.6-4.267l21.333-12.8c8.533 4.267 17.067 12.8 25.6 12.8v17.067c0 17.067 12.8 34.133 34.133 34.133h25.6c17.067 0 34.133-12.8 34.133-34.133v-17.067c8.533-4.267 17.067-8.533 25.6-12.8l21.333 12.8c8.533 4.267 17.067 4.267 25.6 4.267s17.067-8.533 21.333-17.067l12.8-25.6c8.533-17.067 4.267-38.4-12.8-46.933l-21.333-12.8c0-4.267 0-8.533 0-12.8s0-8.533 0-12.8l29.867-12.8zM635.733 251.733l46.933 25.6 46.933-25.6v-55.467l-46.933-25.6-46.933 25.6v55.467zM699.733 213.333v21.333l-17.067 8.533-17.067-8.533v-17.067l17.067-8.533 17.067 4.267zM814.933 162.133c0 4.267 0 4.267 0 0l-46.933 29.867 4.267 12.8c0 4.267 0 12.8 0 17.067s0 12.8 0 17.067l-4.267 12.8 42.667 25.6c0 0 0 0 0 4.267l-12.8 25.6c0 0 0 0 0 0l-46.933-25.6-8.533 8.533c-8.533 8.533-21.333 17.067-34.133 17.067l-12.8 4.267v42.667c0 0 0 0 0 0h-25.6c0 0 0 0 0 0v-42.667l-12.8-4.267c-12.8-4.267-21.333-12.8-34.133-17.067l-8.533-8.533-42.667 25.6c-4.267 0-4.267 0-4.267 0l-12.8-29.867c0 0 0-4.267 0-4.267l42.667-25.6v-8.533c0-4.267 0-12.8 0-17.067s0-12.8 0-17.067l4.267-12.8-46.933-25.6c0 0 0 0 0-4.267l12.8-25.6c0 0 0 0 0 0l46.933 25.6 8.533-8.533c8.533-8.533 21.333-17.067 34.133-17.067l12.8-4.267v-38.4c0 0 0 0 0 0h25.6c0 0 0 0 0 0v38.4l12.8 4.267c12.8 4.267 21.333 12.8 34.133 17.067l8.533 8.533 46.933-25.6c4.267 0 4.267 0 4.267 0l12.8 25.6z" />
<glyph unicode="&#xe925;" glyph-name="conference_manage" d="M755.2 605.867h-42.667v98.133h-413.867v-469.333h157.867v-42.667h-157.867c-25.6 0-42.667 17.067-42.667 42.667v469.333c0 25.6 17.067 42.667 42.667 42.667h413.867c25.6 0 42.667-17.067 42.667-42.667v-98.133zM537.6 554.667h-170.667v42.667h170.667v-42.667zM494.933 460.8v-42.667h-128v42.667h128zM494.933 418.133h-128v42.667h128v-42.667zM725.333 375.467h-119.467c-17.067 0-34.133 12.8-34.133 34.133v115.2c0 17.067 12.8 34.133 34.133 34.133h119.467c17.067 0 34.133-12.8 34.133-34.133v-119.467c0-17.067-17.067-29.867-34.133-29.867zM721.067 516.267h-110.933v-106.667h110.933v106.667zM558.933 170.667h-29.867l-4.267 4.267v145.067c0 25.6 21.333 42.667 42.667 42.667h196.267c25.6 0 42.667-21.333 42.667-42.667v-145.067l-4.267-4.267h-29.867l-4.267 4.267v145.067c0 4.267-4.267 4.267-4.267 4.267h-196.267c-4.267 0-4.267-4.267-4.267-4.267v-145.067l-4.267-4.267zM682.667 196.267l-4.267-4.267h-29.867l-4.267 4.267v59.733h-17.067l-4.267 4.267v29.867l4.267 4.267h72.533l4.267-4.267v-29.867l-4.267-4.267h-17.067v-59.733z" />
<glyph unicode="&#xe926;" glyph-name="app_manage" d="M422.4 746.667h-157.867c-29.867 0-51.2-21.333-51.2-51.2v-157.867c0-29.867 21.333-51.2 51.2-51.2h209.067v209.067c4.267 29.867-21.333 51.2-51.2 51.2zM443.733 516.267h-179.2c-8.533 0-17.067 8.533-17.067 17.067v162.133c0 8.533 8.533 17.067 17.067 17.067h157.867c8.533 0 17.067-8.533 17.067-17.067v-179.2zM759.467 746.667c25.6 0 51.2-21.333 51.2-51.2v-209.067h-209.067c-29.867 0-51.2 21.333-51.2 51.2v157.867c0 29.867 21.333 51.2 51.2 51.2h157.867zM776.533 516.267v179.2c0 8.533-8.533 17.067-17.067 17.067h-157.867c-8.533 0-17.067-8.533-17.067-17.067v-157.867c0-8.533 8.533-17.067 17.067-17.067h174.933zM422.4 413.867c29.867 0 51.2-21.333 51.2-51.2v-213.333h-209.067c-29.867 0-51.2 21.333-51.2 51.2v157.867c0 29.867 21.333 51.2 51.2 51.2h157.867zM443.733 183.467v174.933c0 8.533-8.533 17.067-17.067 17.067h-162.133c-8.533 0-17.067-8.533-17.067-17.067v-157.867c0-8.533 8.533-17.067 17.067-17.067h179.2zM554.667 396.8h247.467v-34.133h-247.467v34.133zM554.667 290.133h247.467v-34.133h-247.467v34.133zM554.667 183.467h247.467v-34.133h-247.467v34.133z" />
<glyph unicode="&#xe927;" glyph-name="barrage" d="M358.4 576h226.133v-46.933h-226.133v46.933zM358.4 460.8h311.467v-46.933h-311.467v46.933zM759.467 708.267h-494.933c-29.867 0-55.467-25.6-55.467-55.467v-354.133h162.133l145.067-179.2 145.067 179.2h162.133v354.133c-4.267 34.133-29.867 55.467-64 55.467zM512 192l-119.467 153.6h-140.8v307.2c0 8.533 4.267 12.8 12.8 12.8h499.2c8.533 0 8.533-4.267 8.533-8.533v-307.2h-136.533l-123.733-157.867zM622.933 576h46.933v-46.933h-46.933v46.933z" />
<glyph unicode="&#xe928;" glyph-name="calendar" d="M896 192v332.8h-768v-332.8c0-38.4 25.6-64 64-64h640c38.4 0 64 25.6 64 64zM320 793.6v102.4h64v-102.4h256v102.4h64v-102.4h128c83.2 0 128-51.2 128-134.4v-460.8c0-83.2-64-134.4-147.2-134.4h-601.6c-83.2 0-147.2 64-147.2 140.8v448c0 76.8 44.8 140.8 128 140.8h128zM320 723.2h-128c-38.4 0-64-25.6-64-64v-64h768v64c0 38.4-25.6 64-64 64h-128v-70.4h-64v70.4h-256v-70.4h-64v70.4zM256 294.4h512v64h-512v-64z" />
<glyph unicode="&#xe929;" glyph-name="add_two" d="M475.859 484.141v295.153h72.282v-295.153h295.153v-72.282h-295.153v-295.153h-72.282v295.153h-295.153v72.282h295.153z" />
</font>
</defs>
</svg>
